<?xml version="1.0" encoding="UTF-8" standalone="no"?>
<!-- Created with Inkscape (http://www.inkscape.org/) -->

<svg
   version="1.1"
   id="svg1"
   width="500"
   height="500"
   viewBox="0 0 500 500"
   xmlns="http://www.w3.org/2000/svg"
   xmlns:svg="http://www.w3.org/2000/svg">
  <defs
     id="defs1" />
  <g
     id="g1">
    <g
       id="g8"
       transform="matrix(1.1016672,0,0,1.1016672,-26.159642,-18.703172)">
      <rect
         style="fill:#ffffff;stroke-width:0.874496"
         id="rect8"
         width="400.42084"
         height="117.39611"
         x="50.052605"
         y="91.914772" />
      <path
         style="fill:#ffffff;stroke-width:0.837049"
         id="rect8-1"
         width="397.69067"
         height="108.29564"
         x="55.655441"
         y="227.61336"
         d="M 55.655441,227.61336 H 453.34612 V 335.909 H 108.43819 A 52.782746,52.782746 45 0 1 55.655441,283.12625 Z" />
      <path
         style="fill:#cdb861;stroke-width:1.60313"
         d="m 415.88998,336.41651 c -5.62693,-3.62514 -9.19078,-12.7952 -7.6061,-19.57103 0.57165,-2.44425 2.86681,-6.47404 5.10037,-8.95511 11.28366,-12.53405 30.02844,-3.49447 30.02844,14.48107 0,4.64239 -1.20943,7.29191 -5.30275,11.61672 -6.28129,6.63657 -14.32376,7.51551 -22.21996,2.42835 z"
         id="path6" />
      <path
         style="fill:#000000"
         d="m 341.40136,442.39708 c -4.94521,-3.36537 -15.7413,-10.70857 -23.9913,-16.31822 -8.25,-5.60966 -18.15,-12.38141 -22,-15.04835 -3.85,-2.66692 -14.59979,-10.01332 -23.88841,-16.32531 l -16.88842,-11.47636 -21.61158,0.64555 c -11.88638,0.35505 -35.56159,0.92072 -52.61159,1.25704 -33.12733,0.65346 -35.19726,0.44689 -50.3443,-5.02416 -8.77019,-3.16776 -25.97903,-14.05874 -30.144084,-19.07732 -0.79929,-0.96309 -4.84139,-4.01568 -8.98244,-6.78354 -4.14105,-2.76786 -8.28642,-5.75202 -9.211928,-6.63147 -11.1963,-10.639 -14.99582,-15.12797 -18.19012,-21.49091 -4.04938,-8.06622 -4.86996,-11.29074 -7.15295,-28.10808 -1.84216,-13.57003 -3.92242,-27.77566 -6.004,-41 -1.72637,-10.9677 -3.77074,-24.36294 -5.95214,-39.00001 -3.54757,-23.80394 -4.69301,-31.32717 -6.01405,-39.5 -0.75565,-4.675 -2.10255,-13.45 -2.99311,-19.5 -0.89056,-6.05 -2.25059,-15.05 -3.02229,-20 -3.06641,-19.66934 -3.49855,-25.54511 -2.41636,-32.85516 3.31622,-22.400533 19.87871,-45.070213 40.50773,-55.444393 9.5826,-4.81901 17.520628,-6.51756 27.420038,-5.86724 28.213174,1.8534 43.838724,3.02542 95.500004,7.16312 10.45,0.83697 21.925,1.51896 25.5,1.51554 3.575,-0.003 10.325,0.43683 15,0.97834 8.22991,0.95327 15.02217,1.43682 63,4.48503 12.375,0.78623 24.975,1.68731 28,2.0024 6.6441,0.69206 43.67858,3.42394 61,4.49972 6.875,0.42698 14.975,1.26036 18,1.85195 3.025,0.59158 7.75,1.50725 10.5,2.03481 11.33621,2.17474 22.78943,7.04632 28.4897,12.11799 1.55648,1.38484 3.88305,3.44388 5.17014,4.57564 5.9739,5.25295 16.84021,22.189623 16.84021,26.247903 0,0.76217 0.6178,2.5802 1.3729,4.04006 3.2074,6.20065 4.5088,10.27703 5.6188,17.59969 1.3876,9.15445 0.6761,18.86427 -5.0805,69.33041 -0.582,5.10169 -1.4523,14.10169 -1.9341,20 -0.4817,5.89831 -1.3425,15.2242 -1.9128,20.7242 -0.5703,5.5 -1.7513,16.975 -2.6245,25.5 -0.8732,8.525 -2.2081,21.35 -2.9665,28.5 -0.7584,7.15 -1.64888,16.825 -1.97892,21.5 -1.36233,19.2973 -3.92845,28.37125 -11.05501,39.09112 -5.25187,7.89994 -12.97085,14.05698 -22.8826,18.25229 l -7.05682,2.98691 -35.5,0.88745 c -19.525,0.48809 -36.48516,1.29166 -37.68924,1.78571 -2.12323,0.87119 -2.14752,1.05805 -0.80552,6.1974 0.76105,2.91451 2.76364,11.37412 4.45019,18.79912 1.68656,7.425 3.70292,16.2 4.4808,19.5 3.74592,15.89118 4.22501,21.5 1.83646,21.5 -0.43455,0 -4.83617,-2.75349 -9.78139,-6.11887 z m 29.88838,-112.30164 c 9.50864,-3.44892 15.31185,-7.10507 21.68604,-13.66267 20.01374,-20.58962 19.58428,-53.77552 -0.95655,-73.91683 -28.07885,-27.53271 -75.07406,-17.96342 -89.80353,18.28605 -2.98039,7.33477 -4.10363,21.18827 -2.43704,30.05734 2.80769,14.94171 14.38057,29.72547 28.6314,36.57513 8.23202,3.95671 13.10355,4.94977 24.6032,5.01533 9.87661,0.0563 12.59621,-0.29403 18.27648,-2.35435 z m -26.87968,-19.4548 c -9.33686,-2.48398 -17.86919,-11.47578 -20.92915,-22.0562 -2.08167,-7.19776 -1.98089,-11.56359 0.42856,-18.56679 3.20445,-9.31389 7.69384,-14.58392 16.21735,-19.03729 6.90593,-3.60823 18.48832,-3.52513 26.33251,0.18892 10.76836,5.09858 17.44839,16.01164 17.44992,28.50767 0.002,12.45268 -6.55798,23.63242 -16.91729,28.83312 -4.81094,2.41525 -17.13961,3.57844 -22.5819,2.13057 z m 93.83333,18.20863 c 3.1184,-3.1184 3.66667,-4.32893 3.66667,-8.09571 0,-7.9884 -5.11704,-13.23762 -12.90429,-13.23762 -3.44499,0 -4.73122,0.63551 -8.09571,4 -3.36449,3.36449 -4,4.65071 -4,8.09571 0,7.79507 5.11678,12.83143 13.08333,12.87768 3.96176,0.023 5.08059,-0.47065 8.25,-3.64006 z m -324.57226,-39.0592 0.26108,-41.22587 16.73892,-0.27413 16.73893,-0.27413 0.28621,-9.75 0.28621,-9.75 H 102.44627 56.910058 v 10 10 h 16.5 16.499998 v 40.91666 c 0,31.78888 0.27885,41.03286 1.25,41.43752 0.6875,0.28647 5.975,0.43647 11.750004,0.33334 l 10.5,-0.18752 z m 65.99828,40.89576 c 0.99093,-0.62908 1.20408,-11.54938 1,-51.23469 l -0.25935,-50.4352 -10.91901,-0.28555 c -8.06245,-0.21084 -11.13241,0.0508 -11.73469,1 -0.97064,1.52978 -1.14583,100.15268 -0.17963,101.11888 0.94588,0.94589 20.57399,0.80068 22.09268,-0.16344 z m 75.29635,-1.16989 c 0.42339,-0.825 2.83407,-6.5625 5.35705,-12.75 8.44741,-20.71685 13.79965,-33.72512 15.12076,-36.75 0.72063,-1.65 3.3704,-8.0625 5.88837,-14.25 2.51796,-6.1875 6.57303,-16.0875 9.01124,-22 2.43822,-5.9125 4.72318,-11.77708 5.07768,-13.03241 l 0.64455,-2.28241 -11.82501,0.28241 -11.825,0.28241 -4.33292,11 c -2.38311,6.05 -4.7227,11.9 -5.19909,13 -1.00474,2.31995 -2.42531,5.88198 -11.56548,29 -3.69671,9.35 -7.36852,18.55038 -8.15959,20.44529 l -1.4383,3.4453 -2.00418,-4.9453 c -1.1023,-2.71991 -2.59998,-6.52029 -3.32819,-8.44529 -1.48465,-3.92466 -9.86593,-25.60591 -11.98361,-31 -2.52802,-6.43929 -8.68144,-22.44222 -10.67039,-27.75 l -1.96729,-5.25 h -12.05315 -12.05315 l 0.61597,3.07983 c 0.33878,1.69391 1.23828,4.50641 1.9989,6.25 0.76061,1.74359 2.7425,6.54517 4.40419,10.67017 1.66169,4.125 5.14062,12.675 7.73094,19 2.59032,6.325 5.98331,14.65 7.53998,18.5 1.55667,3.85 4.88449,11.96255 7.39516,18.02789 2.51067,6.06534 4.56486,11.32791 4.56486,11.6946 0,0.36669 1.55559,4.08023 3.45687,8.25231 l 3.45687,7.5856 12.68608,-0.2802 c 10.06554,-0.22232 12.8451,-0.59005 13.45588,-1.7802 z M 121.91006,201.12829 c 10.13742,-2.42637 21.33651,-8.67937 27.72276,-15.47898 2.74677,-2.92456 2.35451,-3.7344 -5.5917,-11.54418 -5.50057,-5.40613 -6.17728,-5.79035 -7.92566,-4.5 -1.05137,0.77595 -3.86317,2.88632 -6.24845,4.68973 -5.70978,4.31692 -16.6837,7.67238 -22.27253,6.8102 -11.986144,-1.8491 -21.482214,-8.30975 -26.358782,-17.9332 -3.48491,-6.87715 -3.62959,-19.65391 -0.30625,-27.04648 9.209788,-20.48666 35.439682,-24.66145 52.643992,-8.37892 1.73985,1.64665 3.62371,2.83091 4.18635,2.63169 1.92279,-0.6808 14.15027,-13.05978 14.15027,-14.32558 0,-2.44861 -9.59218,-10.16692 -17.28521,-13.90849 -31.4432,-15.292673 -68.435112,0.3127 -78.274172,33.02069 -5.89002,19.58016 2.06254,43.76241 18.30225,55.65371 13.954398,10.21792 31.577592,14.06267 47.257132,10.30981 z m 63.77207,-19.86235 0.27206,-18.75 h 10.25477 10.25476 l 9.60835,18.75 9.60834,18.75 12.69188,0.28046 12.69188,0.28045 -0.69945,-2.28045 c -0.38469,-1.25425 -1.03768,-2.73046 -1.45109,-3.28046 -0.41341,-0.55 -2.98814,-5.275 -5.72162,-10.5 -7.21256,-13.78667 -12.43142,-23.31952 -13.54968,-24.75 -0.67789,-0.86717 -0.55683,-1.25297 0.39529,-1.2597 2.05823,-0.0146 9.78357,-6.47545 13.04413,-10.90912 10.64571,-14.47592 5.85359,-35.56672 -10.17169,-44.76705 -8.47979,-4.868353 -12.63096,-5.364503 -42.50576,-5.080373 l -27.99424,0.26625 -0.2591,51.281813 -0.2591,51.28181 11.7591,-0.28181 11.7591,-0.28182 z m 0.22793,-50.8173 v -12.0673 l 16.5844,0.3173 16.5844,0.3173 2.9156,3.26578 c 2.41533,2.70541 2.9156,4.14363 2.9156,8.38192 0,4.57104 -0.3805,5.47501 -3.5712,8.48423 l -3.5712,3.36807 h -15.9288 -15.9288 z m 154.78621,60.3173 -0.28621,-9.75 -28.5,-0.5 -28.5,-0.5 -0.28361,-10.72781 -0.2836,-10.72781 18.7836,-0.27219 18.78361,-0.27219 0.28753,-9.25 0.28752,-9.25 h -19.03752 -19.03753 v -10.48442 -10.48443 l 28.25,-0.26558 28.25,-0.26557 0.28498,-10.25 0.28499,-10.249993 h -39.53499 -39.53498 v 51.499993 51.5 h 40.03621 40.03621 z m 31.43153,-0.75 c 2.15415,-5.5 4.391,-11.2375 4.97077,-12.75 l 1.05413,-2.75 h 19.75624 c 14.65249,0 19.99156,0.32292 20.66716,1.25 0.50101,0.6875 2.38233,5.075 4.18071,9.75 1.79837,4.675 3.91127,9.9625 4.69533,11.75 l 1.42556,3.25 h 12.01618 c 6.77884,0 12.01618,-0.40713 12.01618,-0.93408 0,-0.51375 -1.173,-3.77625 -2.60667,-7.25 -1.43366,-3.47376 -3.86148,-9.46592 -5.39516,-13.31592 -1.53367,-3.85 -4.81408,-11.95 -7.28979,-18 -2.47572,-6.05 -6.14817,-15.05 -8.16101,-20 -2.01284,-4.95 -4.035,-9.9 -4.49369,-11 -0.45868,-1.1 -2.18435,-5.375 -3.83482,-9.5 -1.65047,-4.125 -4.46067,-10.9875 -6.24489,-15.25 L 411.64,97.515947 H 398.92505 386.2101 l -2.74726,6.749993 c -1.51099,3.7125 -3.12791,7.65 -3.59315,8.75 -1.37018,3.2396 -10.79727,26.10437 -15.66731,38 -2.47686,6.05 -4.88793,11.9 -5.35794,13 -0.47001,1.1 -3.14226,7.625 -5.93833,14.5 -2.79607,6.875 -5.73903,13.97777 -6.53991,15.78393 -2.77702,6.26281 -2.69756,6.30956 10.1944,5.99781 l 11.65055,-0.28174 z m 13.78226,-34.76411 c 0,-0.49386 5.97571,-16.17685 11.80874,-30.99156 0.48551,-1.2331 2.11853,1.89218 5.48649,10.50001 2.63737,6.74061 5.44987,13.73343 6.25,15.53959 0.80012,1.80616 1.45477,3.71866 1.45477,4.25 0,0.56991 -5.12599,0.96607 -12.5,0.96607 -6.875,0 -12.5,-0.11885 -12.5,-0.26411 z"
         id="path2" />
    </g>
  </g>
</svg>
